<!DOCTYPE svg PUBLIC "-//W3C//DTD SVG 20010904//EN" "http://www.w3.org/TR/2001/REC-SVG-20010904/DTD/svg10.dtd">
<svg version="1.0" xmlns="http://www.w3.org/2000/svg" width="500px" height="500px" viewBox="0 0 5000 5000" preserveAspectRatio="xMidYMid meet">
<g id="layer101" fill="#000000" stroke="none">
 <path d="M983 3435 c-213 -46 -377 -232 -428 -484 -22 -106 -16 -373 10 -466 65 -235 231 -408 434 -451 255 -54 506 50 599 248 33 70 56 159 51 198 -4 25 -4 25 -113 25 l-110 0 -11 -45 c-17 -64 -39 -102 -80 -139 -59 -52 -99 -64 -205 -65 -81 -1 -102 3 -144 23 -140 69 -209 221 -210 461 0 299 110 461 326 477 168 13 270 -56 322 -216 l21 -66 108 -3 c84 -2 109 0 113 11 9 24 -24 157 -56 224 -39 85 -135 184 -214 223 -115 57 -278 74 -413 45z"/>
 <path d="M2243 3436 c-187 -46 -343 -210 -402 -426 -30 -106 -43 -265 -32 -380 19 -204 74 -332 191 -451 110 -112 219 -159 372 -159 142 0 251 42 340 131 l58 57 2 -326 3 -327 110 0 110 0 0 915 0 915 -100 0 -100 0 -3 -73 -3 -73 -62 64 c-73 75 -130 110 -212 131 -70 19 -199 19 -272 2z m304 -246 c64 -27 136 -102 167 -173 40 -89 51 -155 51 -287 -1 -183 -42 -304 -132 -392 -61 -59 -123 -82 -223 -83 -73 0 -93 4 -141 28 -99 48 -171 147 -206 280 -22 83 -22 261 0 344 43 163 137 271 264 303 60 15 162 6 220 -20z"/>
 <path d="M3763 3435 c-83 -23 -131 -52 -204 -124 l-68 -66 -3 70 -3 70 -100 0 -100 0 0 -915 0 -915 110 0 110 0 3 332 2 332 49 -52 c104 -109 220 -153 381 -144 151 8 249 52 351 158 67 69 119 165 151 274 20 71 23 101 23 270 -1 179 -3 195 -29 280 -15 49 -42 117 -59 150 -41 77 -166 204 -234 239 -107 54 -268 71 -380 41z m192 -230 c110 -29 200 -119 246 -248 30 -87 38 -276 15 -381 -37 -163 -120 -268 -243 -306 -78 -24 -132 -25 -203 -4 -76 23 -125 59 -170 127 -65 97 -85 177 -85 342 0 117 4 152 22 211 67 212 224 309 418 259z"/>
 </g>
</svg>
